<!-- SVG Icons for ALI Charity - No Copyright Issues -->

<!-- Donate Icon -->
<svg class="icon-donate" viewBox="0 0 24 24" fill="none" stroke="currentColor" stroke-width="2">
  <path d="M20.84 4.61a5.5 5.5 0 0 0-7.78 0L12 5.67l-1.06-1.06a5.5 5.5 0 0 0-7.78 7.78l1.06 1.06L12 21.23l7.78-7.78 1.06-1.06a5.5 5.5 0 0 0 0-7.78z"/>
</svg>

<!-- Token Icon -->
<svg class="icon-token" viewBox="0 0 24 24" fill="none" stroke="currentColor" stroke-width="2">
  <circle cx="12" cy="12" r="10"/>
  <path d="M12 6v12M6 12h12"/>
</svg>

<!-- Team Icon -->
<svg class="icon-team" viewBox="0 0 24 24" fill="none" stroke="currentColor" stroke-width="2">
  <path d="M17 21v-2a4 4 0 0 0-4-4H5a4 4 0 0 0-4 4v2"/>
  <circle cx="9" cy="7" r="4"/>
  <path d="M23 21v-2a4 4 0 0 0-3-3.87M16 3.13a4 4 0 0 1 0 7.75"/>
</svg>

<!-- FAQ Icon -->
<svg class="icon-faq" viewBox="0 0 24 24" fill="none" stroke="currentColor" stroke-width="2">
  <circle cx="12" cy="12" r="10"/>
  <path d="M9.09 9a3 3 0 0 1 5.83 1c0 2-3 3-3 3"/>
  <line x1="12" y1="17" x2="12.01" y2="17"/>
</svg>

<!-- About Icon -->
<svg class="icon-about" viewBox="0 0 24 24" fill="none" stroke="currentColor" stroke-width="2">
  <circle cx="12" cy="12" r="10"/>
  <line x1="12" y1="16" x2="12" y2="12"/>
  <line x1="12" y1="8" x2="12.01" y2="8"/>
</svg>

<!-- Blockchain Icon -->
<svg class="icon-blockchain" viewBox="0 0 24 24" fill="none" stroke="currentColor" stroke-width="2">
  <rect x="2" y="7" width="6" height="6" rx="1"/>
  <rect x="9" y="3" width="6" height="6" rx="1"/>
  <rect x="9" y="15" width="6" height="6" rx="1"/>
  <rect x="16" y="7" width="6" height="6" rx="1"/>
  <path d="M8 10h1M15 10h1M12 9v1M12 14v1"/>
</svg>

<!-- Shield/Security Icon -->
<svg class="icon-shield" viewBox="0 0 24 24" fill="none" stroke="currentColor" stroke-width="2">
  <path d="M12 22s8-4 8-10V5l-8-3-8 3v7c0 6 8 10 8 10z"/>
  <polyline points="9,12 11,14 15,10"/>
</svg>

<!-- Chart/Growth Icon -->
<svg class="icon-chart" viewBox="0 0 24 24" fill="none" stroke="currentColor" stroke-width="2">
  <line x1="18" y1="20" x2="18" y2="10"/>
  <line x1="12" y1="20" x2="12" y2="4"/>
  <line x1="6" y1="20" x2="6" y2="14"/>
</svg>

<!-- Globe/Global Icon -->
<svg class="icon-globe" viewBox="0 0 24 24" fill="none" stroke="currentColor" stroke-width="2">
  <circle cx="12" cy="12" r="10"/>
  <line x1="2" y1="12" x2="22" y2="12"/>
  <path d="M12 2a15.3 15.3 0 0 1 4 10 15.3 15.3 0 0 1-4 10 15.3 15.3 0 0 1-4-10 15.3 15.3 0 0 1 4-10z"/>
</svg>

<!-- Rocket/Launch Icon -->
<svg class="icon-rocket" viewBox="0 0 24 24" fill="none" stroke="currentColor" stroke-width="2">
  <path d="M4.5 16.5c-1.5 1.26-2 5-2 5s3.74-.5 5-2c.71-.84.7-2.13-.09-2.91a2.18 2.18 0 0 0-2.91-.09z"/>
  <path d="M12 15l-3-3a22 22 0 0 1 2-3.95A12.88 12.88 0 0 1 22 2c0 2.72-.78 7.5-6 11a22.35 22.35 0 0 1-4 2z"/>
  <path d="M9 12H4s.55-3.03 2-4c1.62-1.08 5 0 5 0"/>
  <path d="M12 15v5s3.03-.55 4-2c1.08-1.62 0-5 0-5"/>
</svg>

<!-- Wallet Icon -->
<svg class="icon-wallet" viewBox="0 0 24 24" fill="none" stroke="currentColor" stroke-width="2">
  <path d="M21 12V7H5a2 2 0 0 1 0-4h14v4"/>
  <path d="M3 5v14a2 2 0 0 0 2 2h16v-5"/>
  <path d="M18 12a2 2 0 0 0 0 4h4v-4h-4z"/>
</svg>

<!-- Copy Icon -->
<svg class="icon-copy" viewBox="0 0 24 24" fill="none" stroke="currentColor" stroke-width="2">
  <rect x="9" y="9" width="13" height="13" rx="2" ry="2"/>
  <path d="M5 15H4a2 2 0 0 1-2-2V4a2 2 0 0 1 2-2h9a2 2 0 0 1 2 2v1"/>
</svg>

<!-- Check/Success Icon -->
<svg class="icon-check" viewBox="0 0 24 24" fill="none" stroke="currentColor" stroke-width="2">
  <polyline points="20,6 9,17 4,12"/>
</svg>

<!-- External Link Icon -->
<svg class="icon-external" viewBox="0 0 24 24" fill="none" stroke="currentColor" stroke-width="2">
  <path d="M18 13v6a2 2 0 0 1-2 2H5a2 2 0 0 1-2-2V8a2 2 0 0 1 2-2h6"/>
  <polyline points="15,3 21,3 21,9"/>
  <line x1="10" y1="14" x2="21" y2="3"/>
</svg>
